<svg width="742" height="301" xmlns="http://www.w3.org/2000/svg" xmlns:xlink="http://www.w3.org/1999/xlink" overflow="hidden"><defs><clipPath id="clip0"><rect x="380" y="299" width="742" height="301"/></clipPath></defs><g clip-path="url(#clip0)" transform="translate(-380 -299)"><path d="M382.5 407.5C382.5 400.873 387.873 395.5 394.5 395.5L514.5 395.5C521.127 395.5 526.5 400.873 526.5 407.5L526.5 455.5C526.5 462.127 521.127 467.5 514.5 467.5L394.5 467.5C387.873 467.5 382.5 462.127 382.5 455.5Z" stroke="#000000" stroke-width="3" stroke-miterlimit="8" fill="#F2F2F2" fill-rule="evenodd"/><text font-family="Arial,Arial_MSFontService,sans-serif" font-weight="400" font-size="13" transform="translate(421.546 420)">Generative<tspan x="14.3333" y="16">model</tspan><tspan x="22.7533" y="32">(G)</tspan></text><path d="M736.5 408.334C736.5 401.798 741.798 396.5 748.334 396.5L867.666 396.5C874.202 396.5 879.5 401.798 879.5 408.334L879.5 455.666C879.5 462.202 874.202 467.5 867.666 467.5L748.334 467.5C741.798 467.5 736.5 462.202 736.5 455.666Z" stroke="#000000" stroke-width="3" stroke-miterlimit="8" fill="#FFFFFF" fill-rule="evenodd"/><text font-family="Arial,Arial_MSFontService,sans-serif" font-weight="400" font-size="13" transform="translate(766.25 420)">Discriminative<tspan x="23.4133" y="16">model</tspan><tspan x="32.1667" y="32">(D)</tspan></text><path d="M526.013 429 546.867 429.137 546.841 433.137 525.987 433ZM544.894 425.124 556.854 431.203 544.815 437.124Z"/><path d="M926.5 432C926.5 412.394 969.705 396.5 1023 396.5 1076.3 396.5 1119.5 412.394 1119.5 432 1119.5 451.606 1076.3 467.5 1023 467.5 969.705 467.5 926.5 451.606 926.5 432Z" stroke="#000000" stroke-width="3" stroke-miterlimit="8" fill="#FFFFFF" fill-rule="evenodd"/><text font-family="Arial,Arial_MSFontService,sans-serif" font-weight="400" font-size="13" transform="translate(978.698 420)">Probability that<tspan x="-12.9133" y="16">an input came from </tspan><tspan x="7.08667" y="32">the real data </tspan></text><path d="M879 429 915.208 429 915.208 433 879 433ZM913.208 425 925.208 431 913.208 437Z"/><path d="M0-2 23.7581-2 23.7581 570.571 10.4065 570.571 10.4065 566.571 21.7581 566.571 19.7581 568.571 19.7581 0 21.7581 2 0 2ZM12.4065 574.571 0.406509 568.571 12.4065 562.571Z" transform="matrix(-1.83697e-16 -1 -1 1.83697e-16 1022.57 395.407)"/><rect x="484.5" y="300.5" width="458" height="59" stroke="#000000" stroke-width="1.33333" stroke-miterlimit="8" fill="#FFFFFF"/><path d="M478.39 312.465 409.301 393.925" stroke="#000000" stroke-width="1.33333" stroke-miterlimit="8" fill="none" fill-rule="evenodd"/><text font-family="Arial,Arial_MSFontService,sans-serif" font-weight="400" font-size="13" transform="translate(572.159 327)">The purpose of G model is <tspan x="159.833" y="0">to</tspan><tspan x="174.5" y="0">generate</tspan><tspan x="230.333" y="0">data</tspan><tspan x="259.667" y="0">that</tspan><tspan x="4.83331" y="16">D</tspan><tspan x="18.1667" y="16">model</tspan><tspan x="58" y="16">cannot</tspan><tspan x="101.333" y="16">discriminate</tspan><tspan x="176" y="16">with</tspan><tspan x="203.333" y="16">the</tspan><tspan x="225.333" y="16">real</tspan><tspan x="251.167" y="16">dat</tspan><tspan x="269.5" y="16">a</tspan></text><path d="M556.5 432C556.5 412.394 586.497 396.5 623.5 396.5 660.503 396.5 690.5 412.394 690.5 432 690.5 451.606 660.503 467.5 623.5 467.5 586.497 467.5 556.5 451.606 556.5 432Z" stroke="#000000" stroke-width="3" stroke-miterlimit="8" fill="#FFFFFF" fill-rule="evenodd"/><text font-family="Arial,Arial_MSFontService,sans-serif" font-weight="400" font-size="13" transform="translate(591.929 428)">Generated <tspan x="18.42" y="16">data </tspan></text><path d="M690.009 429 726.217 429.159 726.199 433.159 689.991 433ZM724.234 425.151 736.208 431.203 724.182 437.15Z"/><path d="M548.5 519.625C548.5 525.769 582.303 530.75 624 530.75 665.698 530.75 699.5 525.769 699.5 519.625L699.5 586.375C699.5 592.519 665.698 597.5 624 597.5 582.303 597.5 548.5 592.519 548.5 586.375Z" fill="#FFFFFF" fill-rule="evenodd"/><path d="M548.5 519.625C548.5 513.481 582.303 508.5 624 508.5 665.698 508.5 699.5 513.481 699.5 519.625 699.5 525.769 665.698 530.75 624 530.75 582.303 530.75 548.5 525.769 548.5 519.625Z" fill="#FFFFFF" fill-rule="evenodd"/><path d="M699.5 519.625C699.5 525.769 665.698 530.75 624 530.75 582.303 530.75 548.5 525.769 548.5 519.625 548.5 513.481 582.303 508.5 624 508.5 665.698 508.5 699.5 513.481 699.5 519.625L699.5 586.375C699.5 592.519 665.698 597.5 624 597.5 582.303 597.5 548.5 592.519 548.5 586.375L548.5 519.625" stroke="#000000" stroke-width="3" stroke-miterlimit="8" fill="none" fill-rule="evenodd"/><text font-family="Arial,Arial_MSFontService,sans-serif" font-weight="400" font-size="13" transform="translate(594.846 563)">Real data</text><path d="M0-1.5 110.739-1.5 110.739 77.8645 107.739 77.8645 107.739 0 109.239 1.5 0 1.5ZM113.739 76.3645 109.239 85.3645 104.739 76.3645Z" transform="matrix(1 0 0 -1 699.5 552.864)"/><path d="M548.385 554.771 453 554.771 453 475 456 475 456 553.271 454.5 551.771 548.385 551.771ZM450 476.5 454.5 467.5 459 476.5Z"/></g></svg>