<svg width="591" height="642" xmlns="http://www.w3.org/2000/svg" xmlns:xlink="http://www.w3.org/1999/xlink" overflow="hidden"><defs><clipPath id="clip0"><rect x="345" y="21" width="591" height="642"/></clipPath></defs><g clip-path="url(#clip0)" transform="translate(-345 -21)"><path d="M606.216 21.1822 606.216 141.982" stroke="#000000" stroke-width="1.33333" stroke-linejoin="round" stroke-miterlimit="10" fill="none" fill-rule="evenodd"/><path d="M665.318 21.1822 665.318 141.982" stroke="#000000" stroke-width="1.33333" stroke-linejoin="round" stroke-miterlimit="10" fill="none" fill-rule="evenodd"/><path d="M724.42 21.1822 724.42 141.982" stroke="#000000" stroke-width="1.33333" stroke-linejoin="round" stroke-miterlimit="10" fill="none" fill-rule="evenodd"/><path d="M423.235 63.4488 784.189 63.4488" stroke="#000000" stroke-width="1.33333" stroke-linejoin="round" stroke-miterlimit="10" fill="none" fill-rule="evenodd"/><path d="M423.235 102.382 784.189 102.382" stroke="#000000" stroke-width="1.33333" stroke-linejoin="round" stroke-miterlimit="10" fill="none" fill-rule="evenodd"/><path d="M423.902 21.1822 423.902 141.982" stroke="#000000" stroke-width="1.33333" stroke-linejoin="round" stroke-miterlimit="10" fill="none" fill-rule="evenodd"/><path d="M783.522 21.1822 783.522 141.982" stroke="#000000" stroke-width="1.33333" stroke-linejoin="round" stroke-miterlimit="10" fill="none" fill-rule="evenodd"/><path d="M423.235 21.8488 784.189 21.8488" stroke="#000000" stroke-width="1.33333" stroke-linejoin="round" stroke-miterlimit="10" fill="none" fill-rule="evenodd"/><path d="M423.235 141.315 784.189 141.315" stroke="#000000" stroke-width="1.33333" stroke-linejoin="round" stroke-miterlimit="10" fill="none" fill-rule="evenodd"/><text font-family="Arial,Arial_MSFontService,sans-serif" font-weight="700" font-size="13" transform="translate(502.472 39)">Diet<tspan x="-30.7467" y="16">(transformed)</tspan><tspan font-weight="400" x="126.628" y="8">…</tspan><tspan font-weight="400" x="188.73" y="8">7</tspan><tspan font-weight="400" x="244.832" y="9">…</tspan><tspan x="-9.24661" y="48">Food 1</tspan><tspan font-weight="400" x="122.961" y="49">0…</tspan><tspan font-weight="400" x="188.73" y="48">1</tspan><tspan font-weight="400" x="241.165" y="49">0…</tspan><tspan x="7.0867" y="87">...</tspan><tspan font-weight="400" x="127.795" y="88">...</tspan><tspan font-weight="400" x="186.897" y="87">...</tspan><tspan font-weight="400" x="245.999" y="88">...</tspan></text><path d="M583.5 197 593.75 197 593.75 163.5 614.25 163.5 614.25 197 624.5 197 604 217.5Z" stroke="#000000" stroke-width="1.33333" stroke-miterlimit="8" fill="#FFFFFF" fill-rule="evenodd"/><path d="M540.387 234.017 540.387 276.95" stroke="#000000" stroke-width="1.33333" stroke-linejoin="round" stroke-miterlimit="10" fill="none" fill-rule="evenodd"/><path d="M734.454 234.017 734.454 276.95" stroke="#000000" stroke-width="1.33333" stroke-linejoin="round" stroke-miterlimit="10" fill="none" fill-rule="evenodd"/><path d="M346.321 234.017 346.321 276.95" stroke="#000000" stroke-width="1.33333" stroke-linejoin="round" stroke-miterlimit="10" fill="none" fill-rule="evenodd"/><path d="M928.521 234.017 928.521 276.95" stroke="#000000" stroke-width="1.33333" stroke-linejoin="round" stroke-miterlimit="10" fill="none" fill-rule="evenodd"/><path d="M345.654 234.683 929.187 234.683" stroke="#000000" stroke-width="1.33333" stroke-linejoin="round" stroke-miterlimit="10" fill="none" fill-rule="evenodd"/><path d="M345.654 276.283 929.187 276.283" stroke="#000000" stroke-width="1.33333" stroke-linejoin="round" stroke-miterlimit="10" fill="none" fill-rule="evenodd"/><text font-family="Arial,Arial_MSFontService,sans-serif" font-weight="700" font-size="13" transform="translate(430.771 252)">Diet<tspan x="-13.6667" y="16">(cluster)</tspan><tspan font-weight="400" x="202.983" y="8">7</tspan><tspan font-weight="400" x="395.217" y="8">...</tspan></text><path d="M453.5 577.5 463.5 577.5 463.5 306.5 483.5 306.5 483.5 577.5 493.5 577.5 473.5 597.5Z" stroke="#000000" stroke-width="1.33333" stroke-miterlimit="8" fill="#FFFFFF" fill-rule="evenodd"/><path d="M644.239 442.733 928.521 442.733 928.521 481.666 644.239 481.666Z" fill="#D9D9D9" fill-rule="evenodd"/><path d="M643.573 364.866 929.187 364.866" stroke="#000000" stroke-width="1.33333" stroke-linejoin="round" stroke-miterlimit="10" fill="none" fill-rule="evenodd"/><path d="M643.573 403.799 929.187 403.799" stroke="#000000" stroke-width="1.33333" stroke-linejoin="round" stroke-miterlimit="10" fill="none" fill-rule="evenodd"/><path d="M643.573 442.733 929.187 442.733" stroke="#000000" stroke-width="1.33333" stroke-linejoin="round" stroke-miterlimit="10" fill="none" fill-rule="evenodd"/><path d="M643.573 481.666 929.187 481.666" stroke="#000000" stroke-width="1.33333" stroke-linejoin="round" stroke-miterlimit="10" fill="none" fill-rule="evenodd"/><path d="M643.573 520.599 929.187 520.599" stroke="#000000" stroke-width="1.33333" stroke-linejoin="round" stroke-miterlimit="10" fill="none" fill-rule="evenodd"/><path d="M644.239 325.266 644.239 560.199" stroke="#000000" stroke-width="1.33333" stroke-linejoin="round" stroke-miterlimit="10" fill="none" fill-rule="evenodd"/><path d="M928.521 325.266 928.521 560.199" stroke="#000000" stroke-width="1.33333" stroke-linejoin="round" stroke-miterlimit="10" fill="none" fill-rule="evenodd"/><path d="M643.573 325.933 929.187 325.933" stroke="#000000" stroke-width="1.33333" stroke-linejoin="round" stroke-miterlimit="10" fill="none" fill-rule="evenodd"/><path d="M643.573 559.533 929.187 559.533" stroke="#000000" stroke-width="1.33333" stroke-linejoin="round" stroke-miterlimit="10" fill="none" fill-rule="evenodd"/><text font-family="Arial,Arial_MSFontService,sans-serif" font-weight="700" font-size="13" transform="translate(757.963 350)">Cluster 7<tspan font-weight="400" x="-22.9167" y="39">Braised </tspan><tspan font-weight="400" x="25.75" y="39">mackerel</tspan><tspan font-weight="400" x="-68.25" y="78">Braised</tspan><tspan font-weight="400" x="-19.5834" y="78">mackerel with </tspan><tspan font-weight="400" x="65.4166" y="78">soy sauce</tspan><tspan font-weight="400" x="-57.9167" y="117">Braised</tspan><tspan font-weight="400" x="-9.25" y="117">mackerel with daikon</tspan><tspan font-weight="400" x="-15.5" y="156">Braised</tspan><tspan font-weight="400" x="33.1667" y="156">hairtail</tspan><tspan font-weight="400" x="21.75" y="195">…</tspan></text><path d="M640.216 466.35 562.524 466.35 562.524 440.5 562.858 440.833 492.167 440.833 492.167 440.167 563.191 440.167 563.191 466.016 562.858 465.683 640.216 465.683ZM493.5 444.5 485.5 440.5 493.5 436.5Z"/><text font-family="Arial,Arial_MSFontService,sans-serif" font-weight="400" font-size="13" transform="translate(539.169 387)">Random<tspan x="7.74664" y="16">select</tspan></text><path d="M542.107 620.955 542.107 661.222" stroke="#000000" stroke-width="1.33333" stroke-linejoin="round" stroke-miterlimit="10" fill="none" fill-rule="evenodd"/><path d="M737.893 620.955 737.893 661.222" stroke="#000000" stroke-width="1.33333" stroke-linejoin="round" stroke-miterlimit="10" fill="none" fill-rule="evenodd"/><path d="M346.321 620.955 346.321 661.222" stroke="#000000" stroke-width="1.33333" stroke-linejoin="round" stroke-miterlimit="10" fill="none" fill-rule="evenodd"/><path d="M933.679 620.955 933.679 661.222" stroke="#000000" stroke-width="1.33333" stroke-linejoin="round" stroke-miterlimit="10" fill="none" fill-rule="evenodd"/><path d="M345.654 621.622 934.346 621.622" stroke="#000000" stroke-width="1.33333" stroke-linejoin="round" stroke-miterlimit="10" fill="none" fill-rule="evenodd"/><path d="M345.654 660.555 934.346 660.555" stroke="#000000" stroke-width="1.33333" stroke-linejoin="round" stroke-miterlimit="10" fill="none" fill-rule="evenodd"/><text font-family="Arial,Arial_MSFontService,sans-serif" font-weight="700" font-size="13" transform="translate(431.63 646)">Diet<tspan font-weight="400" x="122.036" y="0">Braised</tspan><tspan font-weight="400" x="170.703" y="0">mackerel with daikon</tspan><tspan font-weight="400" x="398.656" y="0">...</tspan></text></g></svg>