<svg width="1033" height="620" xmlns="http://www.w3.org/2000/svg" xmlns:xlink="http://www.w3.org/1999/xlink" overflow="hidden"><defs><clipPath id="clip0"><rect x="124" y="59" width="1033" height="620"/></clipPath></defs><g clip-path="url(#clip0)" transform="translate(-124 -59)"><path d="M297.035 60.1142 297.035 103.048" stroke="#000000" stroke-width="1.33333" stroke-linejoin="round" stroke-miterlimit="10" fill="none" fill-rule="evenodd"/><path d="M468.517 60.1142 468.517 103.048" stroke="#000000" stroke-width="1.33333" stroke-linejoin="round" stroke-miterlimit="10" fill="none" fill-rule="evenodd"/><path d="M640 60.1142 640 103.048" stroke="#000000" stroke-width="1.33333" stroke-linejoin="round" stroke-miterlimit="10" fill="none" fill-rule="evenodd"/><path d="M811.483 60.1142 811.483 103.048" stroke="#000000" stroke-width="1.33333" stroke-linejoin="round" stroke-miterlimit="10" fill="none" fill-rule="evenodd"/><path d="M982.965 60.1142 982.965 103.048" stroke="#000000" stroke-width="1.33333" stroke-linejoin="round" stroke-miterlimit="10" fill="none" fill-rule="evenodd"/><path d="M125.552 60.1142 125.552 103.048" stroke="#000000" stroke-width="1.33333" stroke-linejoin="round" stroke-miterlimit="10" fill="none" fill-rule="evenodd"/><path d="M1154.45 60.1142 1154.45 103.048" stroke="#000000" stroke-width="1.33333" stroke-linejoin="round" stroke-miterlimit="10" fill="none" fill-rule="evenodd"/><path d="M124.885 60.7809 1155.11 60.7809" stroke="#000000" stroke-width="1.33333" stroke-linejoin="round" stroke-miterlimit="10" fill="none" fill-rule="evenodd"/><path d="M124.885 102.381 1155.11 102.381" stroke="#000000" stroke-width="1.33333" stroke-linejoin="round" stroke-miterlimit="10" fill="none" fill-rule="evenodd"/><text font-family="Arial,Arial_MSFontService,sans-serif" font-weight="700" font-size="13" transform="translate(170.293 87)">Diet of May 3 <tspan font-weight="400" x="182.899" y="0">White rice</tspan><tspan font-weight="400" x="355.549" y="-8">Fish cake</tspan><tspan font-weight="400" x="369.629" y="8">soup</tspan><tspan font-weight="400" x="522.281" y="-8">Boiled pork</tspan><tspan font-weight="400" x="538.781" y="8">slices</tspan><tspan font-weight="400" x="696.264" y="-8">Cucumber</tspan><tspan font-weight="400" x="711.098" y="8">salad</tspan><tspan font-weight="400" x="878.414" y="0">Kimchi</tspan></text><path d="M297.035 195.829 297.035 238.762" stroke="#000000" stroke-width="1.33333" stroke-linejoin="round" stroke-miterlimit="10" fill="none" fill-rule="evenodd"/><path d="M468.517 195.829 468.517 238.762" stroke="#000000" stroke-width="1.33333" stroke-linejoin="round" stroke-miterlimit="10" fill="none" fill-rule="evenodd"/><path d="M640 195.829 640 238.762" stroke="#000000" stroke-width="1.33333" stroke-linejoin="round" stroke-miterlimit="10" fill="none" fill-rule="evenodd"/><path d="M811.483 195.829 811.483 238.762" stroke="#000000" stroke-width="1.33333" stroke-linejoin="round" stroke-miterlimit="10" fill="none" fill-rule="evenodd"/><path d="M982.965 195.829 982.965 238.762" stroke="#000000" stroke-width="1.33333" stroke-linejoin="round" stroke-miterlimit="10" fill="none" fill-rule="evenodd"/><path d="M125.552 195.829 125.552 238.762" stroke="#000000" stroke-width="1.33333" stroke-linejoin="round" stroke-miterlimit="10" fill="none" fill-rule="evenodd"/><path d="M1154.45 195.829 1154.45 238.762" stroke="#000000" stroke-width="1.33333" stroke-linejoin="round" stroke-miterlimit="10" fill="none" fill-rule="evenodd"/><path d="M124.885 196.495 1155.11 196.495" stroke="#000000" stroke-width="1.33333" stroke-linejoin="round" stroke-miterlimit="10" fill="none" fill-rule="evenodd"/><path d="M124.885 238.095 1155.11 238.095" stroke="#000000" stroke-width="1.33333" stroke-linejoin="round" stroke-miterlimit="10" fill="none" fill-rule="evenodd"/><text font-family="Arial,Arial_MSFontService,sans-serif" font-weight="700" font-size="13" transform="translate(170.293 214)">Diet of May 3 <tspan x="14.7533" y="16">(cluster)</tspan><tspan font-weight="400" x="205.149" y="8">10</tspan><tspan font-weight="400" x="376.632" y="8">56</tspan><tspan font-weight="400" x="548.115" y="8">42</tspan><tspan font-weight="400" x="715.931" y="8">135</tspan><tspan font-weight="400" x="891.08" y="8">35</tspan></text><path d="M349.092 376.656 349.092 675.589" stroke="#000000" stroke-width="1.33333" stroke-linejoin="round" stroke-miterlimit="10" fill="none" fill-rule="evenodd"/><path d="M410.578 376.656 410.578 675.589" stroke="#000000" stroke-width="1.33333" stroke-linejoin="round" stroke-miterlimit="10" fill="none" fill-rule="evenodd"/><path d="M472.065 376.656 472.065 675.589" stroke="#000000" stroke-width="1.33333" stroke-linejoin="round" stroke-miterlimit="10" fill="none" fill-rule="evenodd"/><path d="M533.552 376.656 533.552 675.589" stroke="#000000" stroke-width="1.33333" stroke-linejoin="round" stroke-miterlimit="10" fill="none" fill-rule="evenodd"/><path d="M595.039 376.656 595.039 675.589" stroke="#000000" stroke-width="1.33333" stroke-linejoin="round" stroke-miterlimit="10" fill="none" fill-rule="evenodd"/><path d="M656.525 376.656 656.525 675.589" stroke="#000000" stroke-width="1.33333" stroke-linejoin="round" stroke-miterlimit="10" fill="none" fill-rule="evenodd"/><path d="M718.012 376.656 718.012 675.589" stroke="#000000" stroke-width="1.33333" stroke-linejoin="round" stroke-miterlimit="10" fill="none" fill-rule="evenodd"/><path d="M779.499 376.656 779.499 675.589" stroke="#000000" stroke-width="1.33333" stroke-linejoin="round" stroke-miterlimit="10" fill="none" fill-rule="evenodd"/><path d="M840.985 376.656 840.985 675.589" stroke="#000000" stroke-width="1.33333" stroke-linejoin="round" stroke-miterlimit="10" fill="none" fill-rule="evenodd"/><path d="M902.472 376.656 902.472 675.589" stroke="#000000" stroke-width="1.33333" stroke-linejoin="round" stroke-miterlimit="10" fill="none" fill-rule="evenodd"/><path d="M963.959 376.656 963.959 675.589" stroke="#000000" stroke-width="1.33333" stroke-linejoin="round" stroke-miterlimit="10" fill="none" fill-rule="evenodd"/><path d="M1025.45 376.656 1025.45 675.589" stroke="#000000" stroke-width="1.33333" stroke-linejoin="round" stroke-miterlimit="10" fill="none" fill-rule="evenodd"/><path d="M192.401 377.322 1087.6 377.322" stroke="#000000" stroke-width="1.33333" stroke-linejoin="round" stroke-miterlimit="10" fill="none" fill-rule="evenodd"/><path d="M192.401 418.922 1087.6 418.922" stroke="#000000" stroke-width="1.33333" stroke-linejoin="round" stroke-miterlimit="10" fill="none" fill-rule="evenodd"/><path d="M192.401 460.522 1087.6 460.522" stroke="#000000" stroke-width="1.33333" stroke-linejoin="round" stroke-miterlimit="10" fill="none" fill-rule="evenodd"/><path d="M192.401 518.122 1087.6 518.122" stroke="#000000" stroke-width="1.33333" stroke-linejoin="round" stroke-miterlimit="10" fill="none" fill-rule="evenodd"/><path d="M192.401 575.722 1087.6 575.722" stroke="#000000" stroke-width="1.33333" stroke-linejoin="round" stroke-miterlimit="10" fill="none" fill-rule="evenodd"/><path d="M192.401 633.322 1087.6 633.322" stroke="#000000" stroke-width="1.33333" stroke-linejoin="round" stroke-miterlimit="10" fill="none" fill-rule="evenodd"/><path d="M193.067 337.722 193.067 675.589" stroke="#000000" stroke-width="1.33333" stroke-linejoin="round" stroke-miterlimit="10" fill="none" fill-rule="evenodd"/><path d="M1086.93 337.722 1086.93 675.589" stroke="#000000" stroke-width="1.33333" stroke-linejoin="round" stroke-miterlimit="10" fill="none" fill-rule="evenodd"/><path d="M192.401 338.389 1087.6 338.389" stroke="#000000" stroke-width="1.33333" stroke-linejoin="round" stroke-miterlimit="10" fill="none" fill-rule="evenodd"/><path d="M192.401 674.922 1087.6 674.922" stroke="#000000" stroke-width="1.33333" stroke-linejoin="round" stroke-miterlimit="10" fill="none" fill-rule="evenodd"/><path d="M193.567 377.889 349.567 419.889" stroke="#000000" stroke-width="1.33333" stroke-linejoin="round" stroke-miterlimit="10" fill="none" fill-rule="evenodd"/><text font-family="Arial,Arial_MSFontService,sans-serif" font-weight="700" font-size="13" transform="translate(599 363)">Diet of May 3<tspan x="-305.499" y="32">Cluster</tspan><tspan x="-396.333" y="48">Food</tspan><tspan font-weight="400" x="-222.831" y="40">0</tspan><tspan font-weight="400" x="-163.178" y="40">...</tspan><tspan font-weight="400" x="-103.525" y="40">10</tspan><tspan font-weight="400" x="-41.3712" y="40">…</tspan><tspan font-weight="400" x="19.4489" y="40">35</tspan><tspan font-weight="400" x="81.6022" y="32">…</tspan><tspan font-weight="400" x="142.422" y="40">42</tspan><tspan font-weight="400" x="204.576" y="32">…</tspan><tspan font-weight="400" x="265.396" y="40">56</tspan><tspan font-weight="400" x="327.549" y="32">…</tspan><tspan font-weight="400" x="384.703" y="40">135</tspan><tspan font-weight="400" x="450.523" y="32">…</tspan><tspan x="-349.75" y="74">Food 1</tspan><tspan x="-364.17" y="90">(White rice)</tspan><tspan font-weight="400" x="-222.831" y="82">0</tspan><tspan x="-163.178" y="82">...</tspan><tspan font-weight="400" x="-99.8579" y="82">1</tspan><tspan font-weight="400" x="-41.3712" y="74">…</tspan><tspan font-weight="400" x="23.1155" y="82">0</tspan><tspan font-weight="400" x="81.6022" y="74">…</tspan><tspan font-weight="400" x="146.089" y="82">0</tspan><tspan font-weight="400" x="204.576" y="74">…</tspan><tspan font-weight="400" x="269.062" y="82">0</tspan><tspan font-weight="400" x="327.549" y="74">…</tspan><tspan font-weight="400" x="392.036" y="82">0</tspan><tspan font-weight="400" x="450.523" y="74">…</tspan><tspan x="-349.75" y="115">Food 2</tspan><tspan x="-360.337" y="131">(Fish cake</tspan><tspan x="-346.084" y="147">soup)</tspan><tspan font-weight="400" x="-222.831" y="131">0</tspan><tspan x="-163.178" y="131">...</tspan><tspan font-weight="400" x="-99.8579" y="131">0</tspan><tspan font-weight="400" x="-41.3712" y="123">…</tspan><tspan font-weight="400" x="23.1155" y="131">0</tspan><tspan font-weight="400" x="81.6022" y="123">…</tspan><tspan font-weight="400" x="146.089" y="131">0</tspan><tspan font-weight="400" x="204.576" y="123">…</tspan><tspan font-weight="400" x="269.062" y="131">1</tspan><tspan font-weight="400" x="327.549" y="123">…</tspan><tspan font-weight="400" x="392.036" y="131">0</tspan><tspan font-weight="400" x="450.523" y="123">…</tspan><tspan x="-349.754" y="173">Food 3</tspan><tspan x="-366.754" y="189">(Boiled pork</tspan><tspan x="-348.507" y="205">slices)</tspan><tspan font-weight="400" x="-222.831" y="189">0</tspan><tspan x="-163.178" y="189">...</tspan><tspan font-weight="400" x="-99.8579" y="189">0</tspan><tspan font-weight="400" x="-41.3712" y="181">…</tspan><tspan font-weight="400" x="23.1155" y="189">0</tspan><tspan font-weight="400" x="81.6022" y="181">…</tspan><tspan font-weight="400" x="146.089" y="189">1</tspan><tspan font-weight="400" x="204.576" y="181">…</tspan><tspan font-weight="400" x="269.062" y="189">0</tspan><tspan font-weight="400" x="327.549" y="181">…</tspan><tspan font-weight="400" x="392.036" y="189">0</tspan><tspan font-weight="400" x="450.523" y="181">…</tspan><tspan x="-349.754" y="231">Food 4</tspan><tspan x="-363.087" y="247">(Cucumber</tspan><tspan x="-350.754" y="263">salade</tspan><tspan x="-309.587" y="263">)</tspan><tspan font-weight="400" x="-222.831" y="247">0</tspan><tspan x="-163.178" y="247">...</tspan><tspan font-weight="400" x="-99.8579" y="247">0</tspan><tspan font-weight="400" x="-41.3712" y="239">…</tspan><tspan font-weight="400" x="23.1155" y="247">0</tspan><tspan font-weight="400" x="81.6022" y="239">…</tspan><tspan font-weight="400" x="146.089" y="247">0</tspan><tspan font-weight="400" x="204.576" y="239">…</tspan><tspan font-weight="400" x="269.062" y="247">0</tspan><tspan font-weight="400" x="327.549" y="239">…</tspan><tspan font-weight="400" x="392.036" y="247">1</tspan><tspan font-weight="400" x="450.523" y="239">…</tspan><tspan x="-349.754" y="288">Food 5</tspan><tspan x="-354.587" y="304">(Kimchi)</tspan><tspan font-weight="400" x="-222.831" y="296">0</tspan><tspan x="-163.178" y="296">...</tspan><tspan font-weight="400" x="-99.8579" y="296">0</tspan><tspan font-weight="400" x="-41.3712" y="288">…</tspan><tspan font-weight="400" x="23.1155" y="296">1</tspan><tspan font-weight="400" x="81.6022" y="288">…</tspan><tspan font-weight="400" x="146.089" y="296">0</tspan><tspan font-weight="400" x="204.576" y="288">…</tspan><tspan font-weight="400" x="269.062" y="296">0</tspan><tspan font-weight="400" x="327.549" y="288">…</tspan><tspan font-weight="400" x="392.036" y="296">0</tspan><tspan font-weight="400" x="450.523" y="288">…</tspan></text><path d="M620.5 155.5 630.5 155.5 630.5 122.5 650.5 122.5 650.5 155.5 660.5 155.5 640.5 175.5Z" stroke="#000000" stroke-width="1.33333" stroke-miterlimit="8" fill="#FFFFFF" fill-rule="evenodd"/><path d="M620.5 297.5 630.5 297.5 630.5 263.5 650.5 263.5 650.5 297.5 660.5 297.5 640.5 317.5Z" stroke="#000000" stroke-width="1.33333" stroke-miterlimit="8" fill="#FFFFFF" fill-rule="evenodd"/><text font-family="Arial,Arial_MSFontService,sans-serif" font-weight="400" font-size="13" transform="translate(686.884 141)">Replace with cluster<tspan x="-0.00012207" y="147">One</tspan><tspan x="24.9999" y="147">-</tspan>hot encoding</text></g></svg>